<svg xmlns="http://www.w3.org/2000/svg" width="34.221" height="34.221" viewBox="0 0 34.221 34.221">
  <path id="users" d="M28.908,84.038a17.014,17.014,0,0,0-5.59-3.7,9.409,9.409,0,1,0-12.715,0A16.987,16.987,0,0,0,0,96.064a1.858,1.858,0,1,0,3.717,0,13.244,13.244,0,1,1,26.488,0,1.858,1.858,0,1,0,3.717,0,16.859,16.859,0,0,0-2.64-9.078A12.506,12.506,0,0,0,28.908,84.038ZM11.268,73.411A5.693,5.693,0,1,1,16.96,79.1,5.7,5.7,0,0,1,11.268,73.411Z" transform="translate(0.15 -63.852)" fill="#1d427c" stroke="#fff" stroke-width="0.3"/>
</svg>
